<svg xmlns="http://www.w3.org/2000/svg" viewBox="0 0 20 20"><defs><style>.cls-1,.cls-2{fill:#fa842f;stroke:#fa842f;stroke-miterlimit:10;}.cls-1{stroke-width:0.75px;}.cls-2{stroke-width:0.25px;}</style></defs><title>trash</title><g id="corbeille"><path class="cls-1" d="M13,3.26h0A2.44,2.44,0,0,0,10.59.82H9.15A2.44,2.44,0,0,0,6.71,3.26H1.45V4.58H3l1.12,14.6h11.5l1.12-14.6h1.79V3.26Zm-1.29,0H8C8,2.62,8.88,1.5,9.5,1.5h1.07C11.19,1.5,11.74,2.62,11.74,3.24ZM5.33,17.84l-1-13.29h11.1l-1,13.29Z"/><rect class="cls-2" x="7.24" y="7.49" width="0.74" height="7.69"/><rect class="cls-2" x="9.52" y="7.49" width="0.74" height="7.69"/><rect class="cls-2" x="11.8" y="7.49" width="0.74" height="7.69"/></g></svg>