<?xml version="1.0" encoding="UTF-8" standalone="no"?>
<!-- Created with Inkscape (http://www.inkscape.org/) -->

<svg
   width="84.666664mm"
   height="31.75mm"
   viewBox="0 0 84.666664 31.75"
   version="1.1"
   id="svg3072"
   inkscape:version="1.2.2 (b0a8486541, 2022-12-01)"
   sodipodi:docname="ColDEF.svg"
   xmlns:inkscape="http://www.inkscape.org/namespaces/inkscape"
   xmlns:sodipodi="http://sodipodi.sourceforge.net/DTD/sodipodi-0.dtd"
   xmlns="http://www.w3.org/2000/svg"
   xmlns:svg="http://www.w3.org/2000/svg">
  <sodipodi:namedview
     id="namedview3074"
     pagecolor="#ffffff"
     bordercolor="#666666"
     borderopacity="1.0"
     inkscape:showpageshadow="2"
     inkscape:pageopacity="0.0"
     inkscape:pagecheckerboard="0"
     inkscape:deskcolor="#d1d1d1"
     inkscape:document-units="mm"
     showgrid="false"
     inkscape:zoom="0.59954405"
     inkscape:cx="283.54881"
     inkscape:cy="394.46643"
     inkscape:window-width="1810"
     inkscape:window-height="896"
     inkscape:window-x="0"
     inkscape:window-y="0"
     inkscape:window-maximized="1"
     inkscape:current-layer="text174" />
  <defs
     id="defs3069" />
  <g
     inkscape:label="Calque 1"
     inkscape:groupmode="layer"
     id="layer1"
     transform="translate(-30.041109,-45.025444)">
    <rect
       style="fill:#8080ff;fill-opacity:1;stroke:none;stroke-width:2.31403;stroke-linecap:round;stroke-linejoin:round;stroke-dasharray:6.94208, 6.94208;stroke-opacity:0.996452"
       id="rect329"
       width="84.666664"
       height="31.75"
       x="30.041109"
       y="45.025444"
       ry="9.6482439" />
    <g
       aria-label="DEF"
       transform="matrix(2.7569445,0,0,2.110308,-29.66973,15.560697)"
       id="text174"
       style="font-size:10.5833px;line-height:1.25;white-space:pre;inline-size:29.7447;display:inline;fill:#0000ff;stroke-width:0.264583">
      <path
         d="m 34.235388,21.410813 q 0,1.915577 -1.090079,2.889241 -1.079497,0.96308 -3.037407,0.96308 h -2.137827 v -7.556476 h 2.370659 q 1.18533,0 2.05316,0.423332 0.878414,0.423332 1.354663,1.248829 0.486831,0.814914 0.486831,2.031994 z m -1.661578,0.04233 q 0,-1.259413 -0.550331,-1.841494 -0.550332,-0.592665 -1.598078,-0.592665 h -0.857248 v 4.921235 h 0.687915 q 2.317742,0 2.317742,-2.487076 z"
         style="font-weight:bold;-inkscape-font-specification:'sans-serif, Bold';fill:#ffffff"
         id="path7833" />
      <path
         d="m 40.151451,25.263134 h -4.349737 v -7.556476 h 4.349737 v 1.312329 h -2.751658 v 1.661578 h 2.561158 v 1.312329 h -2.561158 v 1.947328 h 2.751658 z"
         style="font-weight:bold;-inkscape-font-specification:'sans-serif, Bold';fill:#ffffff"
         id="path7835" />
      <path
         d="m 43.305268,25.263134 h -1.576911 v -7.556476 h 4.328569 v 1.312329 h -2.751658 v 1.947327 h 2.561159 v 1.31233 h -2.561159 z"
         style="font-weight:bold;-inkscape-font-specification:'sans-serif, Bold';fill:#ffffff"
         id="path7837" />
    </g>
  </g>
</svg>
