<svg xmlns="http://www.w3.org/2000/svg" viewBox="0 0 20 20"><defs><style>.cls-1{fill:#fa842f;}</style></defs><title>gomme</title><g id="gomme"><path class="cls-1" d="M10.54,3.38,1.33,12.6a1.73,1.73,0,0,0,0,2.45l3.31,3.3a1.69,1.69,0,0,0,1.22.51l2.25-.05.38,0h10.2a.31.31,0,1,0,0-.62H9.49L18.84,8.8a1.73,1.73,0,0,0,0-2.45L15.54,3C14.05,1.61,12,1.89,10.54,3.38ZM8.84,17.82a1,1,0,0,1-1.47,0l-3.31-3.3a1.05,1.05,0,0,1,0-1.47L8.77,8.34l4.77,4.79Zm-.08-9.5L8,8.24M1.82,14.56a1,1,0,0,1,0-1.47l5-5,1.11.12L3.57,12.56a1.74,1.74,0,0,0,0,2.45l3.15,3.14h-1a1,1,0,0,1-.59-.29Z"/></g></svg>