<svg xmlns="http://www.w3.org/2000/svg" viewBox="0 0 20 20"><defs><style>.cls-1{fill:#fa842f;}</style></defs><title>eye</title><g id="oeil"><path class="cls-1" d="M18.55,8.68C15.75,6.1,12.8,4.8,9.78,4.8A12,12,0,0,0,2.19,7.71,5.46,5.46,0,0,0,.4,10.44h0v0a5.86,5.86,0,0,0,.39,1,3.9,3.9,0,0,0,1,1.28A12.52,12.52,0,0,0,10,16.1a12.58,12.58,0,0,0,8.67-3.88,2.53,2.53,0,0,0,.72-1.78A2.37,2.37,0,0,0,18.55,8.68ZM2.28,9.83A11.92,11.92,0,0,1,8.09,6.58,4.25,4.25,0,0,0,8,14.23,12.76,12.76,0,0,1,2.3,11,.84.84,0,0,1,2.28,9.83Zm15.2,1.24a11.92,11.92,0,0,1-5.81,3.25,4.25,4.25,0,0,0,.13-7.65,12.87,12.87,0,0,1,5.66,3.21A.84.84,0,0,1,17.48,11.07Z"/></g></svg>