<svg xmlns="http://www.w3.org/2000/svg" viewBox="0 0 20 20"><defs><style>.cls-1{fill:#f8f8f8;}</style></defs><title>logout</title><g id="logout"><path class="cls-1" d="M14.74,6.55H13.42V1.75H4.82c1.12.65,2,1.21,2.94,1.69.78.38.79.38.79,1.37,0,3,0,5.94,0,8.91v1.16h4.85v-3.7h1.36c0,1.49,0,3,0,4.41,0,.73,0,.73-1,.73H8.53c0,.84,0,1.6,0,2.37,0,1.33,0,1.33-1.23.7-1.78-1-3.57-2-5.32-3.09-.47-.27-.53-.23-.53-.94,0-4.7,0-9.4,0-14.11,0-.92,0-.92.93-.92H13.78c1,0,1,0,1,.73C14.76,2.86,14.74,4.67,14.74,6.55Z"/><polygon class="cls-1" points="16.24 7.64 16.24 6.46 19.01 8.83 16.24 11.2 16.24 10.02 10.79 10.02 10.79 7.64 16.24 7.64"/></g></svg>