<svg xmlns="http://www.w3.org/2000/svg" viewBox="0 0 20 20"><defs><style>.cls-1{fill:#fa842f;}</style></defs><title>off</title><g id="OFF"><path class="cls-1" d="M.87,6.8c0-2,1-3.09,2.93-3.09S6.73,4.84,6.73,6.8v6.4c0,2-1,3.09-2.93,3.09S.87,15.16.87,13.2ZM2.8,13.32c0,.88.38,1.21,1,1.21s1-.33,1-1.21V6.68c0-.88-.39-1.21-1-1.21s-1,.33-1,1.21Z"/><path class="cls-1" d="M9.91,9.31h2.5v1.76H9.91v5.08H8V3.85h5.11V5.61H9.91Z"/><path class="cls-1" d="M16,9.31h2.49v1.76H16v5.08H14V3.85h5.11V5.61H16Z"/></g></svg>